:SAMPLES-PER-SECOND 30
:FULLY-SPECIFIED
:DEGREES
247
root  -37.0911 39.7213 4.59859 40.417 86.7593 45.8397
RightUpLeg  -12.5798 -10.6162 -10.0776
RightLeg  -2.3155 10.7942 -0.892958
RightFoot  -3.89351 -0.768494 11.3729
RightToes  3.49245e-010 0 -3.6325e-017
Spine  4.14952 -0.599981 -0.19717
Spine1  10.3196 0.0488253 -3.23246
HEad  -8.82903 -0.402217 -2.0369
LeftShoulder1  -0.226481 4.13145 -29.9401
LeftArm  -13.4611 3.83803 -31.9931
LeftForeArm  63.3058 -78.877 -85.9119
LeftHand  -0.03115 3.05148 0.754632
RightShoulder  -0.615087 -5.25815 28.3235
RightArm  -11.5441 -10.8532 40.0751
RightForeArm  105.269 74.8987 132.26
RightHand  -0.0699816 -1.35499 -1.80609
LeftUpLeg  9.01519 8.42967 0.141618
LeftLeg  12.3295 5.49226 0.455136
LeftFoot  -13.2844 0.12899 2.91696
LeftToes  -2.21735e-009 9.83027e-011 -4.04511e-011
248
root  -36.3186 39.5525 4.79947 46.6249 86.3036 51.9322
RightUpLeg  -12.5117 -11.111 -10.2883
RightLeg  -3.64931 9.56524 -0.412349
RightFoot  -4.43402 -0.742829 11.7566
RightToes  3.49245e-010 0 -3.6325e-017
Spine  3.90987 -0.626805 -0.163191
Spine1  10.3666 0.0763289 -3.4701
HEad  -9.00863 -0.332924 -2.48563
LeftShoulder1  -0.288104 4.29335 -30.3454
LeftArm  -13.3658 3.81961 -31.9011
LeftForeArm  63.2171 -78.8644 -86.2341
LeftHand  -0.0503722 3.0554 1.75001
RightShoulder  -0.573997 -5.15854 27.924
RightArm  -11.561 -11.184 39.9996
RightForeArm  106.787 74.6955 133.247
RightHand  -0.0539665 -1.98927 -1.48114
LeftUpLeg  10.2789 8.34414 -0.105703
LeftLeg  12.2448 5.47099 0.539265
LeftFoot  -14.4595 0.149059 2.29159
LeftToes  -2.21735e-009 9.83027e-011 -4.04511e-011
249
root  -35.508 39.3672 5.07505 50.6846 85.8344 56.0232
RightUpLeg  -12.7605 -10.551 -9.90972
RightLeg  -2.04277 7.56226 -0.505314
RightFoot  -4.36669 -0.68831 10.647
RightToes  3.49245e-010 0 -3.6325e-017
Spine  3.66593 -0.599639 -0.0594586
Spine1  10.8323 0.17052 -3.75158
HEad  -9.33489 0.458452 -3.17336
LeftShoulder1  -0.334478 4.41614 -30.5187
LeftArm  -13.3627 3.66211 -31.9479
LeftForeArm  62.7382 -78.8551 -85.8612
LeftHand  -0.0552568 3.09253 2.00522
RightShoulder  -0.530552 -5.02829 27.9887
RightArm  -11.5522 -11.1655 39.8512
RightForeArm  106.551 74.5729 133.615
RightHand  -0.0772286 -1.41293 -2.06288
LeftUpLeg  11.8247 8.56 0.046867
LeftLeg  12.1259 5.04589 0.397979
LeftFoot  -15.6507 0.154708 1.61894
LeftToes  -2.21735e-009 9.83027e-011 -4.04511e-011
250
root  -34.6621 39.2635 5.36719 54.2674 86.1259 59.4467
RightUpLeg  -13.0831 -10.0258 -9.01991
RightLeg  0.574484 6.94156 -0.272777
RightFoot  -2.31468 -0.605994 8.02865
RightToes  3.49245e-010 0 -3.6325e-017
Spine  3.3709 -0.681576 1.04686
Spine1  11.1072 0.13488 -3.78687
HEad  -9.4049 -0.00921096 -3.29006
LeftShoulder1  -0.272903 4.2513 -30.3727
LeftArm  -13.3645 4.31983 -32.1597
LeftForeArm  62.7396 -78.8499 -86.0549
LeftHand  -0.0512511 2.91794 1.68428
RightShoulder  -0.555676 -5.1049 27.923
RightArm  -11.6655 -11.3496 39.6561
RightForeArm  107.413 74.3995 134.334
RightHand  -0.0682053 -1.61694 -1.8706
LeftUpLeg  13.4612 8.73019 0.914647
LeftLeg  11.386 4.13737 0.374458
LeftFoot  -16.3639 0.139488 0.914594
LeftToes  -2.21735e-009 9.83027e-011 -4.04511e-011
251
root  -33.8601 39.2508 5.68851 60.3028 87.112 65.5278
RightUpLeg  -13.6743 -9.13186 -7.65855
RightLeg  3.09274 8.30612 -0.310625
RightFoot  4.2926 -0.498128 3.58494
RightToes  3.49245e-010 0 -3.6325e-017
Spine  3.67262 -0.942711 2.93337
Spine1  11.5603 -0.0977598 -3.42234
HEad  -10.2719 -0.620512 -3.96661
LeftShoulder1  -0.300275 4.32145 -30.5884
LeftArm  -13.2664 4.34388 -32.2655
LeftForeArm  62.7859 -78.8568 -85.864
LeftHand  -0.048729 2.94527 1.49517
RightShoulder  -0.572133 -5.15745 27.8157
RightArm  -12.017 -11.565 39.6748
RightForeArm  109.052 74.0703 135.656
RightHand  -0.0616684 -1.24767 -1.57554
LeftUpLeg  15.3232 8.42891 2.20242
LeftLeg  10.1932 3.30685 0.80638
LeftFoot  -16.4704 0.09214 -0.10017
LeftToes  -2.21735e-009 9.83027e-011 -4.04511e-011
252
root  -32.9644 39.0841 6.10045 64.1181 88.0607 69.0518
RightUpLeg  -14.5716 -7.52212 -6.5068
RightLeg  6.31013 7.73814 -0.40199
RightFoot  8.51441 -0.754235 4.66517
RightToes  3.49245e-010 0 -3.6325e-017
Spine  3.60922 -1.10126 4.48324
Spine1  11.5598 -0.201682 -3.55572
HEad  -10.7391 -0.943692 -4.4555
LeftShoulder1  -0.300406 4.31911 -30.7152
LeftArm  -13.1837 4.83128 -32.5283
LeftForeArm  62.522 -78.8695 -84.9563
LeftHand  -0.0494872 2.58891 1.02995
RightShoulder  -0.643534 -5.34374 28.272
RightArm  -11.782 -11.1301 38.9251
RightForeArm  109.145 74.0163 135.834
RightHand  -0.0596894 -2.01402 -1.7217
LeftUpLeg  15.6517 8.09211 3.7789
LeftLeg  11.8474 2.67707 1.36305
LeftFoot  -17.6083 0.00572132 -1.83347
LeftToes  -2.21735e-009 9.83027e-011 -4.04511e-011
253
root  -32.0483 38.9821 6.49303 62.8366 88.8435 67.8133
RightUpLeg  -15.2521 -7.02349 -5.78536
RightLeg  10.6784 6.94235 0.806229
RightFoot  8.04512 -0.545615 3.51446
RightToes  3.49245e-010 0 -3.6325e-017
Spine  3.82828 -1.24308 6.36788
Spine1  11.6749 -0.254768 -3.66779
HEad  -10.9284 -0.706667 -4.58276
LeftShoulder1  -0.287146 4.27395 -31.1423
LeftArm  -13.0538 5.45805 -32.6294
LeftForeArm  62.7413 -78.8777 -84.964
LeftHand  -0.052096 2.99065 1.64517
RightShoulder  -0.598085 -5.24288 27.6439
RightArm  -11.9346 -10.8017 38.9919
RightForeArm  108.81 74.2119 135.177
RightHand  -0.0468387 -1.61597 -1.21157
LeftUpLeg  16.1256 7.14054 5.26142
LeftLeg  13.8819 2.75227 1.59582
LeftFoot  -17.7901 -0.115683 -3.94858
LeftToes  -2.21735e-009 9.83027e-011 -4.04511e-011
